<svg width="19" height="20" viewBox="0 0 19 20" fill="none" xmlns="http://www.w3.org/2000/svg">
<path fill-rule="evenodd" clip-rule="evenodd" d="M17.7529 3.24297C18.142 3.24297 18.4658 3.56596 18.4658 3.97696V4.35696C18.4658 4.75795 18.142 5.09095 17.7529 5.09095H1.17967C0.78968 5.09095 0.46582 4.75795 0.46582 4.35696V3.97696C0.46582 3.56596 0.78968 3.24297 1.17967 3.24297H4.09539C4.68767 3.24297 5.20312 2.82197 5.33636 2.22798L5.48905 1.54598C5.72636 0.616994 6.50732 0 7.40109 0H11.5305C12.4146 0 13.2043 0.616994 13.4329 1.49699L13.5963 2.22698C13.7285 2.82197 14.244 3.24297 14.8372 3.24297H17.7529ZM16.2716 17.134C16.5761 14.2971 17.109 7.55712 17.109 7.48913C17.1285 7.28313 17.0614 7.08813 16.9281 6.93113C16.7852 6.78413 16.6043 6.69713 16.4049 6.69713H2.53434C2.334 6.69713 2.14338 6.78413 2.01111 6.93113C1.8769 7.08813 1.81076 7.28313 1.82049 7.48913C1.82228 7.50162 1.8414 7.73903 1.87337 8.13594C2.0154 9.89917 2.41099 14.8102 2.66661 17.134C2.8475 18.846 3.9708 19.922 5.59788 19.961C6.85345 19.99 8.14694 20 9.46961 20C10.7155 20 11.9807 19.99 13.2752 19.961C14.9587 19.932 16.081 18.875 16.2716 17.134Z" fill="black"/>
</svg>
