<svg width="19" height="18" viewBox="0 0 19 18" fill="none" xmlns="http://www.w3.org/2000/svg">
<path fill-rule="evenodd" clip-rule="evenodd" d="M6.51116 17.0279L15.2975 5.66544C15.7751 5.0527 15.9449 4.3443 15.7857 3.62299C15.6477 2.96726 15.2445 2.34377 14.6396 1.87078L13.1646 0.699064C11.8806 -0.322161 10.2889 -0.214663 9.37629 0.957057L8.38941 2.23735C8.26207 2.39752 8.29391 2.63401 8.45308 2.76301C8.45308 2.76301 10.9468 4.76246 10.9999 4.80546C11.1696 4.96671 11.297 5.1817 11.3288 5.43969C11.3819 5.94493 11.0317 6.41792 10.5117 6.48242C10.2677 6.51467 10.0342 6.43942 9.86442 6.29967L7.24336 4.21422C7.11602 4.11855 6.92501 4.13898 6.8189 4.26797L0.589904 12.3303C0.186664 12.8355 0.0487136 13.4912 0.186664 14.1255L0.982532 17.5761C1.02498 17.7589 1.18415 17.8879 1.37516 17.8879L4.87698 17.8449C5.51368 17.8341 6.10792 17.5439 6.51116 17.0279ZM11.4145 15.9533H17.1245C17.6817 15.9533 18.1348 16.4123 18.1348 16.9766C18.1348 17.5421 17.6817 18 17.1245 18H11.4145C10.8573 18 10.4042 17.5421 10.4042 16.9766C10.4042 16.4123 10.8573 15.9533 11.4145 15.9533Z" fill="black"/>
</svg>
