<svg width="22" height="21" viewBox="0 0 22 21" fill="none" xmlns="http://www.w3.org/2000/svg">
<path fill-rule="evenodd" clip-rule="evenodd" d="M6.17486 0.996831C6.3549 1.12679 6.64524 1.42531 6.64524 1.42531C7.77236 2.4817 9.47001 5.10917 10.0152 6.44221C10.0266 6.44221 10.3499 7.23483 10.3626 7.61184V7.66202C10.3626 8.23975 10.0393 8.78017 9.51946 9.05682C9.30517 9.17087 8.78394 9.27694 8.53247 9.32812C8.44919 9.34507 8.39549 9.35599 8.39234 9.3592C7.64938 9.47243 6.50957 9.54706 5.2582 9.54706C3.94471 9.54706 2.75546 9.47243 2.02391 9.33346C2.01123 9.33346 1.34307 9.19578 1.11993 9.107C0.797895 8.96932 0.525306 8.71712 0.351611 8.40317C0.227361 8.15226 0.166504 7.88719 0.166504 7.61184C0.177915 7.32233 0.364289 6.7819 0.450503 6.56831C0.99568 5.15936 2.77955 2.46883 3.8699 1.43817C3.98317 1.32323 4.11206 1.20281 4.20176 1.11901C4.24961 1.07431 4.28631 1.04002 4.30351 1.02257C4.5761 0.808971 4.91081 0.69574 5.27088 0.69574C5.59165 0.69574 5.91368 0.796104 6.17486 0.996831ZM17.7475 8.45434C17.7475 9.02179 17.2949 9.48116 16.7358 9.48116C16.1766 9.48116 15.724 9.02179 15.724 8.45434L15.4451 3.49394C15.4451 2.77079 16.0232 2.18532 16.7358 2.18532C17.4483 2.18532 18.0252 2.77079 18.0252 3.49394L17.7475 8.45434ZM20.8797 11.7843C21.2018 11.9233 21.4744 12.1742 21.6481 12.4881C21.7723 12.7391 21.8332 13.0041 21.8332 13.2808C21.8218 13.569 21.6354 14.1107 21.5479 14.3243C21.004 15.732 19.2189 18.4226 18.1298 19.4546C18.0184 19.5668 17.8919 19.6848 17.8024 19.7683L17.8023 19.7684C17.7523 19.8151 17.7139 19.8509 17.6962 19.8689C17.4223 20.0825 17.0889 20.1957 16.7301 20.1957C16.4068 20.1957 16.0847 20.0954 15.8248 19.8934C15.6448 19.7647 15.3544 19.4662 15.3544 19.4662C14.226 18.411 12.5297 15.7822 11.9845 14.4491C11.9718 14.4491 11.6498 13.6578 11.6371 13.2808V13.2306C11.6371 12.6516 11.9591 12.1111 12.4802 11.8345C12.6941 11.7216 13.2136 11.6153 13.4657 11.5637L13.4657 11.5637C13.5498 11.5464 13.6042 11.5353 13.6073 11.5321C14.3503 11.4189 15.4901 11.3442 16.7415 11.3442C18.055 11.3442 19.2442 11.4189 19.9758 11.5578C19.9872 11.5578 20.6566 11.6955 20.8797 11.7843ZM5.26416 11.4105C4.70504 11.4105 4.25242 11.8698 4.25242 12.4373L3.97349 17.3976C3.97349 18.1207 4.55163 18.7062 5.26416 18.7062C5.9767 18.7062 6.55357 18.1207 6.55357 17.3976L6.27591 12.4373C6.27591 11.8698 5.82329 11.4105 5.26416 11.4105Z" fill="#130F26"/>
</svg>
